SplineFontDB: 3.0
FontName: Untitled1
FullName: Untitled1
FamilyName: Untitled1
Weight: Regular
Copyright: Copyright (c) 2017, Anson Leung
UComments: "2017-8-26: Created with FontForge (http://fontforge.org)"
Version: 001.000
ItalicAngle: 0
UnderlinePosition: -100
UnderlineWidth: 50
Ascent: 800
Descent: 200
InvalidEm: 0
LayerCount: 2
Layer: 0 0 "Back" 1
Layer: 1 0 "Fore" 0
XUID: [1021 216 -1418392442 17821]
OS2Version: 0
OS2_WeightWidthSlopeOnly: 0
OS2_UseTypoMetrics: 1
CreationTime: 1503685860
ModificationTime: 1515758285
OS2TypoAscent: 0
OS2TypoAOffset: 1
OS2TypoDescent: 0
OS2TypoDOffset: 1
OS2TypoLinegap: 0
OS2WinAscent: 0
OS2WinAOffset: 1
OS2WinDescent: 0
OS2WinDOffset: 1
HheadAscent: 0
HheadAOffset: 1
HheadDescent: 0
HheadDOffset: 1
OS2Vendor: 'PfEd'
DEI: 91125
Encoding: ISO8859-1
UnicodeInterp: none
NameList: AGL For New Fonts
DisplaySize: -48
AntiAlias: 1
FitToEm: 0
WinInfo: 27 27 9
Grid
499 1300 m 0
 499 -700 l 1024
  Named: "500"
-1000 500 m 0
 2000 500 l 1024
  Named: "500"
EndSplineSet
BeginChars: 256 26

StartChar: o
Encoding: 111 111 0
Width: 450
VWidth: 0
InSpiro: 1
Flags: HW
HStem: 0 21G<197.88 250.12> 480 20G<197.88 250.12>
LayerCount: 2
Fore
SplineSet
315 105 m 0
 327.403320312 116.986328125 335.69140625 132.736328125 340.9453125 149.166015625 c 0
 346.19921875 165.595703125 348.629882812 182.805664062 350 200 c 0
 352.650390625 233.255859375 352.650390625 266.744140625 350 300 c 0
 348.629882812 317.194335938 346.19921875 334.404296875 340.9453125 350.833984375 c 0
 335.69140625 367.263671875 327.403320312 383.013671875 315 395 c 0
 303.354492188 406.25390625 288.490234375 413.80859375 272.97265625 418.4453125 c 0
 257.455078125 423.08203125 241.1953125 425 225 425 c 0
 208.8046875 425 192.544921875 423.08203125 177.02734375 418.4453125 c 0
 161.509765625 413.80859375 146.645507812 406.25390625 135 395 c 0
 122.596679688 383.013671875 114.30859375 367.263671875 109.0546875 350.833984375 c 0
 103.80078125 334.404296875 101.370117188 317.194335938 100 300 c 0
 97.349609375 266.744140625 97.349609375 233.255859375 100 200 c 0
 101.370117188 182.805664062 103.80078125 165.595703125 109.0546875 149.166015625 c 0
 114.30859375 132.736328125 122.596679688 116.986328125 135 105 c 0
 146.645507812 93.74609375 161.509765625 86.19140625 177.02734375 81.5546875 c 0
 192.544921875 76.91796875 208.8046875 75 225 75 c 0
 241.1953125 75 257.455078125 76.91796875 272.97265625 81.5546875 c 0
 288.490234375 86.19140625 303.354492188 93.74609375 315 105 c 0
  Spiro
    315 105 c
    350 200 o
    350 300 o
    315 395 c
    225 425 o
    135 395 c
    100 300 o
    100 200 o
    135 105 c
    225 75 o
    0 0 z
  EndSpiro
225 0 m 0
 198.791992188 0 172.481445312 3.3037109375 147.462890625 11.1083984375 c 0
 122.444335938 18.912109375 98.587890625 31.525390625 80 50 c 0
 60.7119140625 69.1708984375 47.75390625 93.998046875 39.43359375 119.889648438 c 0
 31.1142578125 145.780273438 27.1083984375 172.88671875 25 200 c 0
 22.4130859375 233.263671875 22.4130859375 266.736328125 25 300 c 0
 27.1083984375 327.11328125 31.1142578125 354.219726562 39.43359375 380.110351562 c 0
 47.75390625 406.001953125 60.7119140625 430.829101562 80 450 c 0
 98.587890625 468.474609375 122.444335938 481.087890625 147.462890625 488.891601562 c 0
 172.481445312 496.696289062 198.791992188 500 225 500 c 0
 251.208007812 500 277.518554688 496.696289062 302.537109375 488.891601562 c 0
 327.555664062 481.087890625 351.412109375 468.474609375 370 450 c 0
 389.288085938 430.829101562 402.24609375 406.001953125 410.56640625 380.110351562 c 0
 418.885742188 354.219726562 422.891601562 327.11328125 425 300 c 0
 427.586914062 266.736328125 427.586914062 233.263671875 425 200 c 0
 422.891601562 172.88671875 418.885742188 145.780273438 410.56640625 119.889648438 c 0
 402.24609375 93.998046875 389.288085938 69.1708984375 370 50 c 0
 351.412109375 31.525390625 327.555664062 18.912109375 302.537109375 11.1083984375 c 0
 277.518554688 3.3037109375 251.208007812 0 225 0 c 0
  Spiro
    225 0 o
    80 50 c
    25 200 o
    25 300 o
    80 450 c
    225 500 o
    370 450 c
    425 300 o
    425 200 o
    370 50 c
    0 0 z
  EndSpiro
EndSplineSet
EndChar

StartChar: n
Encoding: 110 110 1
Width: 450
VWidth: 0
InSpiro: 1
Flags: HW
HStem: 0 21G<26 101 351 426> 425.249 74.8018<161.119 303.551>
VStem: 26 75<0 300 415 431.818> 26 53<468.182 500> 351 75<0 380.558>
LayerCount: 2
Back
SplineSet
87 400 m 1
 106.203990976 423.056980558 129.695034483 442.56163406 156 457 c 0
 201.685094046 482.075801958 257.214570854 491.405671247 307 476 c 0
 346.21970363 463.863801299 380.237271936 435.984816954 400 400 c 0
 411.14564291 379.705538696 417.930327034 357.190210846 421.386131252 334.295933554 c 0
 424.841935469 311.401656262 425 288.15362856 425 265 c 2
 425 0 l 1
 350 0 l 1
 350 265 l 2
 350 281.316110053 350.333230585 297.659433542 349.090629604 313.928157833 c 0
 347.848028623 330.196882125 344.594218935 346.558972126 337 361 c 0
 331.494679493 371.468816816 323.775915804 380.769832965 314.467971404 388.068247208 c 0
 305.160027005 395.366661451 294.349230713 400.668387534 283 404 c 0
 266.212837671 408.927939233 248.336528408 409.631740649 231.0014911 407.267446737 c 0
 213.666453793 404.903152826 196.802561129 399.508159955 181 392 c 0
 148.830906493 376.715724389 120.945351728 352.805414404 100 324 c 1
 87 400 l 1
  Spiro
    87 400 v
    156 457 o
    307 476 o
    400 400 o
    425 265 [
    425 0 v
    350 0 v
    350 265 ]
    337 361 o
    283 404 o
    181 392 o
    100 324 v
    0 0 z
  EndSpiro
101 0 m 1
 101 300 l 2
 101 340.059600944 100.627358098 380.208553873 96 420 c 0
 92.8633850262 446.972290256 87.8961211528 473.736216796 81 500 c 1
 26 500 l 1
 26 0 l 1
 101 0 l 1
  Spiro
    101 0 v
    101 300 ]
    96 420 o
    81 500 v
    26 500 v
    26 0 v
    0 0 z
  EndSpiro
EndSplineSet
Fore
SplineSet
100.918945312 324.727539062 m 1
 100.940429688 321.983398438 100.95703125 319.23828125 100.96875 316.493164062 c 0
 100.981445312 313.739257812 100.989257812 310.986328125 100.994140625 308.233398438 c 0
 100.999023438 305.48828125 101 302.744140625 101 300 c 2
 101 0 l 1
 26 0 l 1
 26 500 l 1
 81 500 l 1
 84.31640625 486.0703125 87.3173828125 472.065429688 90 458 c 0
 92.2177734375 446.372070312 94.21875 434.703125 96 423 c 1
 111.82421875 441.60546875 130.368164062 457.926757812 151 471 c 0
 174.624023438 485.969726562 201.243164062 496.576171875 229 500 c 0
 265.0078125 504.44140625 302.172851562 496.416015625 334 479 c 0
 365.122070312 461.969726562 391.475585938 435.771484375 406.940429688 403.84375 c 0
 414.672851562 387.87890625 419.643554688 370.638671875 422.233398438 353.090820312 c 0
 424.823242188 335.541992188 425 317.73828125 425 300 c 2
 425 0 l 1
 350 0 l 1
 350 300 l 2
 350 321.604492188 349.298828125 343.598632812 342.204101562 364.00390625 c 0
 335.109375 384.41015625 321.803710938 402.76171875 304 415 c 0
 282.415039062 429.836914062 254.701171875 435.047851562 229 430 c 0
 209.827148438 426.234375 191.954101562 417.280273438 176 406 c 0
 145.713867188 384.5859375 121.067382812 355.87109375 100.918945312 324.727539062 c 1
 100.918945312 324.727539062 l 1
  Spiro
    100.919 324.728 v
    100.969 316.493 o
    100.994 308.233 o
    101 300 [
    101 0 v
    26 0 v
    26 500 v
    81 500 v
    90 458 o
    96 423 v
    151 471 o
    229 500 o
    334 479 o
    425 300 [
    425 0 v
    350 0 v
    350 300 ]
    304 415 o
    229 430 o
    176 406 o
    100.919 324.728 v
    0 0 z
  EndSpiro
EndSplineSet
EndChar

StartChar: e
Encoding: 101 101 2
Width: 450
VWidth: 0
InSpiro: 1
Flags: HW
LayerCount: 2
Back
SplineSet
390 450 m 1
 341.981445312 483.319335938 283.4140625 501.91796875 225 500 c 0
 179.903320312 498.51953125 134.416015625 484.180664062 100 455 c 0
 77.6142578125 436.01953125 60.50390625 411.28515625 48.3681640625 384.5625 c 0
 36.232421875 357.840820312 28.8642578125 329.09375 25 300 c 0
 20.5986328125 266.86328125 20.6015625 233.137695312 25 200 c 0
 28.861328125 170.903320312 36.216796875 142.151367188 48.345703125 115.423828125 c 0
 60.474609375 88.6953125 77.587890625 63.953125 100 45 c 0
 134.442382812 15.873046875 179.923828125 1.6787109375 225 0 c 0
 284.99609375 -2.234375 345.19921875 16.4677734375 395 50 c 1
 365 115 l 1
 324.274414062 86.9140625 274.295898438 70.8427734375 225 75 c 0
 199.985351562 77.109375 175.0625 84.9111328125 155 100 c 0
 139.446289062 111.698242188 127.229492188 127.484375 118.291015625 144.772460938 c 0
 109.352539062 162.060546875 103.553710938 180.865234375 100 200 c 0
 93.880859375 232.950195312 93.86328125 267.052734375 100 300 c 0
 103.5625 319.127929688 109.38671875 337.919921875 118.337890625 355.196289062 c 0
 127.288085938 372.47265625 139.495117188 388.245117188 155 400 c 0
 175.01953125 415.176757812 199.942382812 423.19140625 225 425 c 0
 269.624023438 428.220703125 314.8671875 412.702148438 350 385 c 1
 390 450 l 1
  Spiro
    390 450 v
    225 500 o
    100 455 c
    25 300 o
    25 200 o
    100 45 c
    225 0 o
    395 50 v
    365 115 v
    225 75 o
    155 100 c
    100 200 o
    100 300 o
    155 400 c
    225 425 o
    350 385 v
    0 0 z
  EndSpiro
EndSplineSet
Fore
SplineSet
75 300 m 1
 75 225 l 1
 425 225 l 1
 426.630859375 249.96484375 426.728515625 275.041015625 425 300 c 0
 423.120117188 327.14453125 419.114257812 354.280273438 410.75390625 380.173828125 c 0
 402.393554688 406.06640625 389.34765625 430.868164062 370 450 c 0
 351.372070312 468.420898438 327.508789062 480.984375 302.499023438 488.784179688 c 0
 277.48828125 496.583984375 251.198242188 499.928710938 225 500 c 0
 198.7734375 500.071289062 172.427734375 496.861328125 147.379882812 489.0859375 c 0
 122.333007812 481.309570312 98.4453125 468.643554688 80 450 c 0
 60.90625 430.702148438 48.326171875 405.743164062 40.0859375 379.876953125 c 0
 31.8447265625 354.010742188 27.552734375 327.026367188 25 300 c 0
 21.8603515625 266.7578125 21.267578125 233.180664062 25 200 c 0
 28.34375 170.276367188 35.45703125 140.817382812 48.0029296875 113.6640625 c 0
 60.5478515625 86.51171875 78.6513671875 61.6953125 102 43 c 0
 136.46484375 15.404296875 180.899414062 2.111328125 225 0 c 0
 291.825195312 -3.19921875 358.962890625 17.4521484375 415 54 c 1
 376 114 l 1
 330.881835938 86.515625 277.623046875 70.326171875 225 75 c 0
 200.897460938 77.140625 176.875 84.197265625 157 98 c 0
 140.547851562 109.42578125 127.37109375 125.263671875 117.995117188 142.96484375 c 0
 108.619140625 160.666992188 102.977539062 180.19140625 100 200 c 0
 95.0322265625 233.045898438 96.4111328125 266.776367188 100 300 c 0
 101.84765625 317.098632812 104.532226562 334.188476562 109.723632812 350.583984375 c 0
 114.915039062 366.98046875 122.858398438 382.8203125 135 395 c 0
 146.466796875 406.502929688 161.2890625 414.310546875 176.845703125 418.981445312 c 0
 192.401367188 423.65234375 208.76171875 425.370117188 225 425 c 0
 241.099609375 424.6328125 257.184570312 422.219726562 272.557617188 417.421875 c 0
 287.9296875 412.624023438 302.640625 405.32421875 315 395 c 0
 328.557617188 383.67578125 339.077148438 368.749023438 345.184570312 352.172851562 c 0
 351.291015625 335.59765625 352.969726562 317.413085938 350 300 c 1
 75 300 l 1
  Spiro
    75 300 v
    75 225 v
    425 225 v
    425 300 o
    370 450 c
    225 500 o
    80 450 c
    25 300 o
    25 200 o
    102 43 c
    225 0 o
    415 54 v
    376 114 v
    225 75 o
    157 98 c
    100 200 o
    100 300 o
    135 395 c
    225 425 o
    315 395 c
    350 300 v
    0 0 z
  EndSpiro
376 114 m 1024
  Spiro
    376 114 v
    0 0 z
  EndSpiro
EndSplineSet
EndChar

StartChar: s
Encoding: 115 115 3
Width: 400
VWidth: 0
InSpiro: 1
Flags: HW
HStem: 0 75<111.835 262.877> 425 75<129.201 284.245>
VStem: 36 75<322.842 405.679>
LayerCount: 2
Back
SplineSet
260 264 m 1024
  Spiro
    260 264 {
    0 0 z
  EndSpiro
71 300 m 0,1,2
 72.140625 340.478515625 94.123046875 379.815429688 128 402 c 0,3,4
 148.20703125 415.233398438 171.975585938 422.491210938 196 425 c 0,5,6
 248.677734375 430.501953125 302.551757812 414.802734375 347 386 c 1,7,-1
 386 446 l 1,8,9
 330.696289062 483.90625 262.9140625 504.229492188 196 500 c 0,10,11
 152.041015625 497.221679688 108.245117188 483.416992188 73 457 c 0,12,13
 24.583984375 420.709960938 -4.9462890625 360.499023438 -4 300 c 1024
  Spiro
    71 300 {
    128 402 c
    196 425 o
    347 386 v
    386 446 v
    196 500 o
    73 457 c
    -4 300 o
    0 0 z
  EndSpiro
321 200 m 0,15,16
 319.859375 159.521484375 297.876953125 120.184570312 264 98 c 0,17,18
 243.79296875 84.7666015625 220.024414062 77.5087890625 196 75 c 0,19,20
 143.322265625 69.498046875 89.4482421875 85.197265625 45 114 c 1,21,-1
 6 54 l 1,22,23
 61.3037109375 16.09375 129.0859375 -4.2294921875 196 0 c 0,24,25
 239.958984375 2.7783203125 283.754882812 16.5830078125 319 43 c 0,26,27
 367.416015625 79.2900390625 396.946289062 139.500976562 396 200 c 1024
  Spiro
    321 200 {
    264 98 c
    196 75 o
    45 114 v
    6 54 v
    196 0 o
    319 43 c
    396 200 o
    0 0 z
  EndSpiro
356 99 m 1024
  Spiro
    356 99 v
    0 0 z
  EndSpiro
356 99 m 1024
  Spiro
    356 99 v
    0 0 z
  EndSpiro
EndSplineSet
Fore
SplineSet
350 445 m 1
 305 385 l 1
 275.850585938 409.712890625 238.21484375 424.900390625 200 425 c 0
 179.146484375 425.0546875 158.068359375 420.413085938 140 410 c 0
 132.501953125 405.678710938 125.510742188 400.3125 120.116210938 393.546875 c 0
 114.720703125 386.780273438 111.026367188 378.592773438 110 370 c 0
 108.940429688 361.130859375 110.762695312 351.9921875 114.844726562 344.045898438 c 0
 118.92578125 336.100585938 125.137695312 329.375976562 132.224609375 323.9375 c 0
 146.396484375 313.060546875 163.48046875 306.801757812 180 300 c 2
 265 265 l 2
 278.995117188 259.237304688 292.9921875 253.28515625 305.81640625 245.249023438 c 0
 318.641601562 237.212890625 330.245117188 227.138671875 339.509765625 215.170898438 c 0
 358.037109375 191.234375 366.53125 160.23046875 365 130 c 0
 363.297851562 96.39453125 349.704101562 62.845703125 325 40 c 0
 308.584960938 24.8203125 287.82421875 14.904296875 266.30078125 8.853515625 c 0
 244.77734375 2.802734375 222.35546875 0.341796875 200 0 c 0
 169.611328125 -0.46484375 138.985351562 2.8623046875 110 12 c 0
 76.1357421875 22.6748046875 44.9482421875 41.734375 20 67 c 1
 68 125 l 1
 88.4990234375 103.553710938 115.194335938 88.0986328125 144 81 c 0
 162.26953125 76.4970703125 181.18359375 74.9970703125 200 75 c 0
 211.284179688 75.001953125 222.608398438 75.6328125 233.690429688 77.763671875 c 0
 244.771484375 79.8935546875 255.685546875 83.6298828125 265 90 c 0
 278.37109375 99.14453125 287.9140625 113.935546875 290 130 c 0
 292.079101562 146.008789062 286.493164062 162.6640625 275.776367188 174.737304688 c 0
 265.059570312 186.809570312 249.926757812 193.853515625 235 200 c 2
 150 235 l 2
 120.700195312 247.064453125 91.142578125 260.836914062 69.4013671875 283.887695312 c 0
 47.66015625 306.939453125 34.734375 338.314453125 35 370 c 0
 35.283203125 403.751953125 50.2802734375 437.017578125 75 460 c 0
 91.44921875 475.293945312 111.833007812 486.071289062 133.358398438 492.485351562 c 0
 154.883789062 498.899414062 177.564453125 501.0703125 200 500 c 0
 253.942382812 497.42578125 306.455078125 476.94140625 350 445 c 1
  Spiro
    350 445 v
    305 385 v
    200 425 o
    140 410 c
    110 370 o
    180 300 [
    265 265 ]
    365 130 o
    325 40 c
    200 0 o
    110 12 c
    20 67 v
    68 125 v
    144 81 c
    200 75 o
    265 90 c
    290 130 o
    235 200 [
    150 235 ]
    35 370 o
    75 460 c
    200 500 o
    0 0 z
  EndSpiro
EndSplineSet
EndChar

StartChar: a
Encoding: 97 97 4
Width: 450
VWidth: 0
InSpiro: 1
Flags: HW
LayerCount: 2
Back
SplineSet
410 0 m 1
 350 0 l 1
 341.978515625 22.91796875 335.296875 46.3037109375 330 70 c 0
 320.465820312 112.6484375 315.4296875 156.30078125 315 200 c 2
 315 725 l 1
 390 725 l 1
 390 200 l 2
 389.624023438 156.55078125 392.299804688 113.075195312 398 70 c 0
 401.106445312 46.525390625 405.110351562 23.1689453125 410 0 c 1
  Spiro
    410 0 v
    350 0 v
    330 70 o
    315 200 v
    315 725 v
    390 725 v
    390 200 v
    398 70 o
    0 0 z
  EndSpiro
35 450 m 1
 83.0185546875 483.319335938 141.5859375 501.91796875 200 500 c 0
 245.096679688 498.51953125 290.583984375 484.180664062 325 455 c 0
 347.385742188 436.01953125 364.49609375 411.28515625 376.631835938 384.5625 c 0
 388.767578125 357.840820312 396.135742188 329.09375 400 300 c 0
 404.401367188 266.86328125 404.3984375 233.137695312 400 200 c 0
 396.138671875 170.903320312 388.783203125 142.151367188 376.654296875 115.423828125 c 0
 364.525390625 88.6953125 347.412109375 63.953125 325 45 c 0
 290.557617188 15.873046875 245.076171875 1.6787109375 200 0 c 0
 140.00390625 -2.234375 79.80078125 16.4677734375 30 50 c 1
 60 115 l 1
 100.725585938 86.9140625 150.704101562 70.8427734375 200 75 c 0
 225.014648438 77.109375 249.9375 84.9111328125 270 100 c 0
 285.553710938 111.698242188 297.770507812 127.484375 306.708984375 144.772460938 c 0
 315.647460938 162.060546875 321.446289062 180.865234375 325 200 c 0
 331.119140625 232.950195312 331.13671875 267.052734375 325 300 c 0
 321.4375 319.127929688 315.61328125 337.919921875 306.662109375 355.196289062 c 0
 297.711914062 372.47265625 285.504882812 388.245117188 270 400 c 0
 249.98046875 415.176757812 225.057617188 423.19140625 200 425 c 0
 155.375976562 428.220703125 110.1328125 412.702148438 75 385 c 1
 35 450 l 1
  Spiro
    35 450 v
    200 500 o
    325 455 c
    400 300 o
    400 200 o
    325 45 c
    200 0 o
    30 50 v
    60 115 v
    200 75 o
    270 100 c
    325 200 o
    325 300 o
    270 400 c
    200 425 o
    75 385 v
    0 0 z
  EndSpiro
EndSplineSet
Fore
SplineSet
345 0 m 1
 337.96560242 23.051231407 331.900222255 46.4027577768 327 70 c 0
 318.132718539 112.700795513 315 156.388228447 315 200 c 2
 315 300 l 2
 315 318.279257184 314.87375506 336.73298612 310.79252236 354.550808176 c 0
 306.711289659 372.368630233 298.457932505 389.630064839 285 402 c 0
 274.755219218 411.416548491 261.867617627 417.689007264 248.410605369 421.229591938 c 0
 234.95359311 424.770176611 220.898022987 425.68693217 207 425 c 0
 162.139199186 422.782682668 118.902054273 406.621202938 79 386 c 1
 40 446 l 1
 89.9512749689 477.738178478 147.850173546 498.066124449 207 500 c 0
 230.886196152 500.780947866 254.982227121 498.362640993 277.881865582 491.52401507 c 0
 300.781504043 484.685389147 322.509081802 473.285822877 340 457 c 0
 360.629184868 437.792131834 374.71072915 412.126083041 382.067638007 384.916133393 c 0
 389.424546864 357.706183745 390 329.186973371 390 301 c 2
 390 200 l 2
 390 156.475772232 392.815240445 112.927120017 400 70 c 0
 403.928615538 46.5275164186 408.655243537 23.1910561182 414 0 c 1
 345 0 l 1
  Spiro
    345 0 v
    327 70 o
    315 200 [
    315 300 ]
    285 402 c
    207 425 o
    79 386 v
    40 446 v
    207 500 o
    340 457 c
    390 301 [
    390 200 ]
    400 70 o
    414 0 v
    0 0 z
  EndSpiro
382 95 m 1
 360.15625 71.431640625 334.788085938 51.13671875 307 35 c 0
 271.977539062 14.662109375 232.489257812 0.8984375 192 0 c 0
 165.684570312 -0.583984375 139.139648438 4.3408203125 115.227539062 15.34375 c 0
 91.3154296875 26.34765625 70.1591796875 43.48046875 55 65 c 0
 40.3251953125 85.8310546875 31.375 110.68359375 29.6025390625 136.102539062 c 0
 27.830078125 161.521484375 33.2353515625 187.397460938 45 210 c 0
 60.7626953125 240.282226562 87.6826171875 263.994140625 118.403320312 278.881835938 c 0
 149.125 293.76953125 183.258789062 299.80859375 217 305 c 2
 347 325 l 1
 357 255 l 1
 222 235 l 2
 199.916992188 231.728515625 177.555664062 228.288085938 157.094726562 219.360351562 c 0
 136.6328125 210.43359375 118.017578125 195.421875 109 175 c 0
 104.407226562 164.598632812 102.442382812 153.032226562 103.474609375 141.708007812 c 0
 104.506835938 130.384765625 108.548828125 119.36328125 115 110 c 0
 123.318359375 97.92578125 135.522460938 88.76953125 149.048828125 83.11328125 c 0
 162.575195312 77.45703125 177.338867188 75.1279296875 192 75 c 0
 228.8125 74.677734375 265.188476562 86.470703125 297 105 c 0
 317.5546875 116.97265625 336.194335938 132.223632812 352 150 c 1
 382 95 l 1
  Spiro
    382 95 v
    307 35 c
    192 0 o
    55 65 o
    45 210 c
    217 305 [
    347 325 v
    357 255 v
    222 235 ]
    109 175 c
    115 110 o
    192 75 o
    297 105 c
    352 150 v
    0 0 z
  EndSpiro
72 386 m 1024
  Spiro
    72 386 v
    0 0 z
  EndSpiro
EndSplineSet
EndChar

StartChar: d
Encoding: 100 100 5
Width: 470
VWidth: 0
InSpiro: 1
Flags: HW
LayerCount: 2
Fore
SplineSet
320 120 m 0
 330.608375839 131.27547498 339.354980379 144.475936319 344.31581497 159.141000046 c 0
 349.27664956 173.806063773 350 189.518592637 350 205 c 2
 350 295 l 2
 350 310.481407363 349.27664956 326.193936227 344.31581497 340.858999954 c 0
 339.354980379 355.524063681 330.608375839 368.72452502 320 380 c 0
 296.523366169 404.952942975 264.091299143 421.596322297 230 425 c 0
 213.719672902 426.625429002 197.079570817 425.215372617 181.481060682 420.278009815 c 0
 165.882550547 415.340647013 151.334098272 406.799546017 140 395 c 0
 128.086681331 382.597447236 119.964117489 366.926346267 114.63006692 350.577083859 c 0
 109.296016351 334.22782145 106.586807175 317.124033396 105 300 c 0
 101.920677654 266.769485597 101.920677654 233.230514403 105 200 c 0
 106.586807175 182.875966604 109.296016351 165.77217855 114.63006692 149.422916141 c 0
 119.964117489 133.073653733 128.086681331 117.402552764 140 105 c 0
 151.334098272 93.2004539825 165.882550547 84.6593529869 181.481060682 79.721990185 c 0
 197.079570817 74.7846273831 213.719672902 73.3745709978 230 75 c 0
 264.091299143 78.4036777033 296.523366169 95.0470570251 320 120 c 0
  Spiro
    320 120 c
    350 205 [
    350 295 ]
    320 380 c
    230 425 o
    140 395 c
    105 300 o
    105 200 o
    140 105 c
    230 75 o
    0 0 z
  EndSpiro
230 0 m 0
 203.662200376 -2.51527864491 176.764871216 0.109401130207 151.636911317 8.39142666726 c 0
 126.508951418 16.6734522043 103.147270537 30.7468732993 85 50 c 0
 66.3921047658 69.7418208901 53.6112538259 94.4400637991 45.1585469266 120.218834196 c 0
 36.7058400272 145.997604593 32.3292225816 172.970978944 30 200 c 0
 27.1347794004 233.248908254 27.1347794004 266.751091746 30 300 c 0
 32.3292225816 327.029021056 36.7058400272 354.002395407 45.1585469266 379.781165804 c 0
 53.6112538259 405.559936201 66.3921047658 430.25817911 85 450 c 0
 103.147270537 469.253126701 126.508951418 483.326547796 151.636911317 491.608573333 c 0
 176.764871216 499.89059887 203.662200376 502.515278645 230 500 c 0
 277.010304947 495.510482356 322.663056412 474.415790261 355 440 c 0
 372.306361621 421.581063463 385.525858083 399.271825198 392.816315151 375.072308438 c 0
 400.10677222 350.872791678 401 325.273847663 401 300 c 2
 401 200 l 2
 401 174.726152337 400.10677222 149.127208322 392.816315151 124.927691562 c 0
 385.525858083 100.728174802 372.306361621 78.4189365367 355 60 c 0
 322.663056412 25.5842097386 277.010304947 4.48951764436 230 0 c 0
  Spiro
    230 0 o
    85 50 c
    30 200 o
    30 300 o
    85 450 c
    230 500 o
    355 440 c
    401 300 [
    401 200 ]
    355 60 c
    0 0 z
  EndSpiro
438 0 m 1
 378 0 l 1
 369.978515625 22.91796875 363.296875 46.3037109375 358 70 c 0
 348.465820312 112.6484375 343.4296875 156.30078125 343 200 c 2
 343 725 l 1
 418 725 l 1
 418 200 l 2
 417.624023438 156.55078125 420.299804688 113.075195312 426 70 c 0
 429.106445312 46.525390625 433.110351562 23.1689453125 438 0 c 1
  Spiro
    438 0 v
    378 0 v
    358 70 o
    343 200 v
    343 725 v
    418 725 v
    418 200 v
    426 70 o
    0 0 z
  EndSpiro
EndSplineSet
EndChar

StartChar: p
Encoding: 112 112 6
Width: 442
VWidth: 0
InSpiro: 1
Flags: HW
LayerCount: 2
Back
SplineSet
420 0 m 5
 367 0 l 5
 345 100 l 5
 345 725 l 5
 420 725 l 5
 420 0 l 5
  Spiro
    420 0 v
    367 0 v
    345 100 v
    345 725 v
    420 725 v
    0 0 z
  EndSpiro
310 105 m 4
 322.403320312 116.986328125 330.69140625 132.736328125 335.9453125 149.166015625 c 4
 341.19921875 165.595703125 343.629882812 182.805664062 345 200 c 4
 347.650390625 233.255859375 347.650390625 266.744140625 345 300 c 4
 343.629882812 317.194335938 341.19921875 334.404296875 335.9453125 350.833984375 c 4
 330.69140625 367.263671875 322.403320312 383.013671875 310 395 c 4
 298.354492188 406.25390625 283.490234375 413.80859375 267.97265625 418.4453125 c 4
 252.455078125 423.08203125 236.1953125 425 220 425 c 4
 203.8046875 425 187.544921875 423.08203125 172.02734375 418.4453125 c 4
 156.509765625 413.80859375 141.645507812 406.25390625 130 395 c 4
 117.596679688 383.013671875 109.30859375 367.263671875 104.0546875 350.833984375 c 4
 98.80078125 334.404296875 96.3701171875 317.194335938 95 300 c 4
 92.349609375 266.744140625 92.349609375 233.255859375 95 200 c 4
 96.3701171875 182.805664062 98.80078125 165.595703125 104.0546875 149.166015625 c 4
 109.30859375 132.736328125 117.596679688 116.986328125 130 105 c 4
 141.645507812 93.74609375 156.509765625 86.19140625 172.02734375 81.5546875 c 4
 187.544921875 76.91796875 203.8046875 75 220 75 c 4
 236.1953125 75 252.455078125 76.91796875 267.97265625 81.5546875 c 4
 283.490234375 86.19140625 298.354492188 93.74609375 310 105 c 4
  Spiro
    310 105 c
    345 200 o
    345 300 o
    310 395 c
    220 425 o
    130 395 c
    95 300 o
    95 200 o
    130 105 c
    220 75 o
    0 0 z
  EndSpiro
220 0 m 4
 193.791992188 0 167.481445312 3.3037109375 142.462890625 11.1083984375 c 4
 117.444335938 18.912109375 93.587890625 31.525390625 75 50 c 4
 55.7119140625 69.1708984375 42.75390625 93.998046875 34.43359375 119.889648438 c 4
 26.1142578125 145.780273438 22.1083984375 172.88671875 20 200 c 4
 17.4130859375 233.263671875 17.4130859375 266.736328125 20 300 c 4
 22.1083984375 327.11328125 26.1142578125 354.219726562 34.43359375 380.110351562 c 4
 42.75390625 406.001953125 55.7119140625 430.829101562 75 450 c 4
 93.587890625 468.474609375 117.444335938 481.087890625 142.462890625 488.891601562 c 4
 167.481445312 496.696289062 193.791992188 500 220 500 c 4
 246.208007812 500 272.518554688 496.696289062 297.537109375 488.891601562 c 4
 322.555664062 481.087890625 346.412109375 468.474609375 365 450 c 4
 384.288085938 430.829101562 397.24609375 406.001953125 405.56640625 380.110351562 c 4
 413.885742188 354.219726562 417.891601562 327.11328125 420 300 c 4
 422.586914062 266.736328125 422.586914062 233.263671875 420 200 c 4
 417.891601562 172.88671875 413.885742188 145.780273438 405.56640625 119.889648438 c 4
 397.24609375 93.998046875 384.288085938 69.1708984375 365 50 c 4
 346.412109375 31.525390625 322.555664062 18.912109375 297.537109375 11.1083984375 c 4
 272.518554688 3.3037109375 246.208007812 0 220 0 c 4
  Spiro
    220 0 o
    75 50 c
    20 200 o
    20 300 o
    75 450 c
    220 500 o
    365 450 c
    420 300 o
    420 200 o
    365 50 c
    0 0 z
  EndSpiro
EndSplineSet
Fore
SplineSet
20 500 m 1
 75 500 l 1
 81.5419921875 473.653320312 86.552734375 446.926757812 90 420 c 0
 95.08984375 380.241210938 96.7646484375 340.044921875 95 300 c 2
 95 -225 l 1
 20 -225 l 1
 20 300 l 1
 20 500 l 1
  Spiro
    20 500 v
    75 500 v
    90 420 o
    95 300 v
    95 -225 v
    20 -225 v
    20 300 v
    0 0 z
  EndSpiro
135 395 m 0
 121.735351562 383.578125 111.653320312 368.514648438 106.14453125 351.899414062 c 0
 100.63671875 335.284179688 100 317.50390625 100 300 c 2
 100 200 l 2
 100 182.49609375 100.63671875 164.715820312 106.14453125 148.100585938 c 0
 111.653320312 131.485351562 121.735351562 116.421875 135 105 c 0
 158.19921875 85.0244140625 189.40234375 76.009765625 220 75 c 0
 236.237304688 74.4638671875 252.615234375 76.21484375 268.15625 80.9501953125 c 0
 283.697265625 85.685546875 298.458007812 93.56640625 310 105 c 0
 322.2421875 117.126953125 330.473632812 132.849609375 335.75390625 149.251953125 c 0
 341.034179688 165.654296875 343.557617188 182.829101562 345 200 c 0
 347.791992188 233.247070312 347.791992188 266.752929688 345 300 c 0
 343.557617188 317.170898438 341.034179688 334.345703125 335.75390625 350.748046875 c 0
 330.473632812 367.150390625 322.2421875 382.873046875 310 395 c 0
 298.458007812 406.43359375 283.697265625 414.314453125 268.15625 419.049804688 c 0
 252.615234375 423.78515625 236.237304688 425.536132812 220 425 c 0
 189.40234375 423.990234375 158.19921875 414.975585938 135 395 c 0
  Spiro
    135 395 c
    100 300 [
    100 200 ]
    135 105 c
    220 75 o
    310 105 c
    345 200 o
    345 300 o
    310 395 c
    220 425 o
    0 0 z
  EndSpiro
220 500 m 0
 246.268554688 500.728515625 272.747070312 497.6640625 297.797851562 489.723632812 c 0
 322.848632812 481.783203125 346.552734375 468.715820312 365 450 c 0
 384.075195312 430.647460938 396.9765625 405.861328125 405.337890625 380.005859375 c 0
 413.69921875 354.151367188 417.822265625 327.0859375 420 300 c 0
 422.674804688 266.740234375 422.674804688 233.259765625 420 200 c 0
 417.822265625 172.9140625 413.69921875 145.848632812 405.337890625 119.994140625 c 0
 396.9765625 94.138671875 384.075195312 69.3525390625 365 50 c 0
 346.552734375 31.2841796875 322.848632812 18.216796875 297.797851562 10.2763671875 c 0
 272.747070312 2.3359375 246.268554688 -0.728515625 220 0 c 0
 169.485351562 1.400390625 117.956054688 16.638671875 80 50 c 0
 59.2666015625 68.2236328125 43.4140625 91.9638671875 34.720703125 118.162109375 c 0
 26.0283203125 144.361328125 25 172.396484375 25 200 c 2
 25 300 l 2
 25 327.603515625 26.0283203125 355.638671875 34.720703125 381.837890625 c 0
 43.4140625 408.036132812 59.2666015625 431.776367188 80 450 c 0
 117.956054688 483.361328125 169.485351562 498.599609375 220 500 c 0
  Spiro
    220 500 o
    365 450 c
    420 300 o
    420 200 o
    365 50 c
    220 0 o
    80 50 c
    25 200 [
    25 300 ]
    80 450 c
    0 0 z
  EndSpiro
EndSplineSet
EndChar

StartChar: v
Encoding: 118 118 7
Width: 499
VWidth: 0
Flags: HW
LayerCount: 2
Fore
SplineSet
238 75 m 5
 388 500 l 29
 463 500 l 5
 288 0 l 5
 188 0 l 5
 13 500 l 5
 88 500 l 29
 238 75 l 5
EndSplineSet
EndChar

StartChar: i
Encoding: 105 105 8
Width: 175
VWidth: 0
Flags: HW
VStem: 51 74
LayerCount: 2
Fore
SplineSet
50 0 m 5
 125 0 l 5
 125 500 l 5
 50 500 l 5
 50 0 l 5
50 665 m 29
 50 590 l 29
 125 590 l 29
 125 665 l 29
 50 665 l 29
EndSplineSet
EndChar

StartChar: c
Encoding: 99 99 9
Width: 400
VWidth: 0
InSpiro: 1
Flags: HW
LayerCount: 2
Back
SplineSet
377 445 m 5
 332 385 l 5
 302.850585938 409.712890625 265.21484375 424.900390625 227 425 c 4
 206.146484375 425.0546875 185.068359375 420.413085938 167 410 c 4
 159.501953125 405.678710938 152.510742188 400.3125 147.116210938 393.546875 c 4
 141.720703125 386.780273438 138.026367188 378.592773438 137 370 c 4
 135.940429688 361.130859375 137.762695312 351.9921875 141.844726562 344.045898438 c 4
 145.92578125 336.100585938 152.137695312 329.375976562 159.224609375 323.9375 c 4
 173.396484375 313.060546875 190.48046875 306.801757812 207 300 c 6
 292 265 l 6
 305.995117188 259.237304688 319.9921875 253.28515625 332.81640625 245.249023438 c 4
 345.641601562 237.212890625 357.245117188 227.138671875 366.509765625 215.170898438 c 4
 385.037109375 191.234375 393.53125 160.23046875 392 130 c 4
 390.297851562 96.39453125 376.704101562 62.845703125 352 40 c 4
 335.584960938 24.8203125 314.82421875 14.904296875 293.30078125 8.853515625 c 4
 271.77734375 2.802734375 249.35546875 0.341796875 227 0 c 4
 196.611328125 -0.46484375 165.985351562 2.8623046875 137 12 c 4
 103.135742188 22.6748046875 71.9482421875 41.734375 47 67 c 5
 95 125 l 5
 115.499023438 103.553710938 142.194335938 88.0986328125 171 81 c 4
 189.26953125 76.4970703125 208.18359375 74.9970703125 227 75 c 4
 238.284179688 75.001953125 249.608398438 75.6328125 260.690429688 77.763671875 c 4
 271.771484375 79.8935546875 282.685546875 83.6298828125 292 90 c 4
 305.37109375 99.14453125 314.9140625 113.935546875 317 130 c 4
 319.079101562 146.008789062 313.493164062 162.6640625 302.776367188 174.737304688 c 4
 292.059570312 186.809570312 276.926757812 193.853515625 262 200 c 6
 177 235 l 6
 147.700195312 247.064453125 118.142578125 260.836914062 96.4013671875 283.887695312 c 4
 74.66015625 306.939453125 61.734375 338.314453125 62 370 c 4
 62.283203125 403.751953125 77.2802734375 437.017578125 102 460 c 4
 118.44921875 475.293945312 138.833007812 486.071289062 160.358398438 492.485351562 c 4
 181.883789062 498.899414062 204.564453125 501.0703125 227 500 c 4
 280.942382812 497.42578125 333.455078125 476.94140625 377 445 c 5
  Spiro
    377 445 v
    332 385 v
    227 425 o
    167 410 c
    137 370 o
    207 300 [
    292 265 ]
    392 130 o
    352 40 c
    227 0 o
    137 12 c
    47 67 v
    95 125 v
    171 81 c
    227 75 o
    292 90 c
    317 130 o
    262 200 [
    177 235 ]
    62 370 o
    102 460 c
    227 500 o
    0 0 z
  EndSpiro
EndSplineSet
Fore
SplineSet
380 450 m 1
 331.981445312 483.319335938 273.4140625 501.91796875 215 500 c 0
 169.903320312 498.51953125 124.416015625 484.180664062 90 455 c 0
 67.6142578125 436.01953125 50.50390625 411.28515625 38.3681640625 384.5625 c 0
 26.232421875 357.840820312 18.8642578125 329.09375 15 300 c 0
 10.5986328125 266.86328125 10.6015625 233.137695312 15 200 c 0
 18.861328125 170.903320312 26.216796875 142.151367188 38.345703125 115.423828125 c 0
 50.474609375 88.6953125 67.587890625 63.953125 90 45 c 0
 124.442382812 15.873046875 169.923828125 1.6787109375 215 0 c 0
 274.99609375 -2.234375 335.19921875 16.4677734375 385 50 c 1
 355 115 l 1
 314.274414062 86.9140625 264.295898438 70.8427734375 215 75 c 0
 189.985351562 77.109375 165.0625 84.9111328125 145 100 c 0
 129.446289062 111.698242188 117.229492188 127.484375 108.291015625 144.772460938 c 0
 99.3525390625 162.060546875 93.5537109375 180.865234375 90 200 c 0
 83.880859375 232.950195312 83.86328125 267.052734375 90 300 c 0
 93.5625 319.127929688 99.38671875 337.919921875 108.337890625 355.196289062 c 0
 117.288085938 372.47265625 129.495117188 388.245117188 145 400 c 0
 165.01953125 415.176757812 189.942382812 423.19140625 215 425 c 0
 259.624023438 428.220703125 304.8671875 412.702148438 340 385 c 1
 380 450 l 1
  Spiro
    380 450 v
    215 500 o
    90 455 c
    15 300 o
    15 200 o
    90 45 c
    215 0 o
    385 50 v
    355 115 v
    215 75 o
    145 100 c
    90 200 o
    90 300 o
    145 400 c
    215 425 o
    340 385 v
    0 0 z
  EndSpiro
EndSplineSet
EndChar

StartChar: b
Encoding: 98 98 10
Width: 442
VWidth: 0
InSpiro: 1
Flags: HW
LayerCount: 2
Back
SplineSet
320 120 m 4
 330.608375839 131.27547498 339.354980379 144.475936319 344.31581497 159.141000046 c 4
 349.27664956 173.806063773 350 189.518592637 350 205 c 6
 350 295 l 6
 350 310.481407363 349.27664956 326.193936227 344.31581497 340.858999954 c 4
 339.354980379 355.524063681 330.608375839 368.72452502 320 380 c 4
 296.523366169 404.952942975 264.091299143 421.596322297 230 425 c 4
 213.719672902 426.625429002 197.079570817 425.215372617 181.481060682 420.278009815 c 4
 165.882550547 415.340647013 151.334098272 406.799546017 140 395 c 4
 128.086681331 382.597447236 119.964117489 366.926346267 114.63006692 350.577083859 c 4
 109.296016351 334.22782145 106.586807175 317.124033396 105 300 c 4
 101.920677654 266.769485597 101.920677654 233.230514403 105 200 c 4
 106.586807175 182.875966604 109.296016351 165.77217855 114.63006692 149.422916141 c 4
 119.964117489 133.073653733 128.086681331 117.402552764 140 105 c 4
 151.334098272 93.2004539825 165.882550547 84.6593529869 181.481060682 79.721990185 c 4
 197.079570817 74.7846273831 213.719672902 73.3745709978 230 75 c 4
 264.091299143 78.4036777033 296.523366169 95.0470570251 320 120 c 4
  Spiro
    320 120 c
    350 205 [
    350 295 ]
    320 380 c
    230 425 o
    140 395 c
    105 300 o
    105 200 o
    140 105 c
    230 75 o
    0 0 z
  EndSpiro
230 0 m 4
 203.662200376 -2.51527864491 176.764871216 0.109401130207 151.636911317 8.39142666726 c 4
 126.508951418 16.6734522043 103.147270537 30.7468732993 85 50 c 4
 66.3921047658 69.7418208901 53.6112538259 94.4400637991 45.1585469266 120.218834196 c 4
 36.7058400272 145.997604593 32.3292225816 172.970978944 30 200 c 4
 27.1347794004 233.248908254 27.1347794004 266.751091746 30 300 c 4
 32.3292225816 327.029021056 36.7058400272 354.002395407 45.1585469266 379.781165804 c 4
 53.6112538259 405.559936201 66.3921047658 430.25817911 85 450 c 4
 103.147270537 469.253126701 126.508951418 483.326547796 151.636911317 491.608573333 c 4
 176.764871216 499.89059887 203.662200376 502.515278645 230 500 c 4
 277.010304947 495.510482356 322.663056412 474.415790261 355 440 c 4
 372.306361621 421.581063463 385.525858083 399.271825198 392.816315151 375.072308438 c 4
 400.10677222 350.872791678 401 325.273847663 401 300 c 6
 401 200 l 6
 401 174.726152337 400.10677222 149.127208322 392.816315151 124.927691562 c 4
 385.525858083 100.728174802 372.306361621 78.4189365367 355 60 c 4
 322.663056412 25.5842097386 277.010304947 4.48951764436 230 0 c 4
  Spiro
    230 0 o
    85 50 c
    30 200 o
    30 300 o
    85 450 c
    230 500 o
    355 440 c
    401 300 [
    401 200 ]
    355 60 c
    0 0 z
  EndSpiro
438 0 m 5
 378 0 l 5
 369.978515625 22.91796875 363.296875 46.3037109375 358 70 c 4
 348.465820312 112.6484375 343.4296875 156.30078125 343 200 c 6
 343 725 l 5
 418 725 l 5
 418 200 l 6
 417.624023438 156.55078125 420.299804688 113.075195312 426 70 c 4
 429.106445312 46.525390625 433.110351562 23.1689453125 438 0 c 5
  Spiro
    438 0 v
    378 0 v
    358 70 o
    343 200 v
    343 725 v
    418 725 v
    418 200 v
    426 70 o
    0 0 z
  EndSpiro
EndSplineSet
Fore
SplineSet
118 120 m 0
 107.391601562 131.275390625 98.6455078125 144.475585938 93.6845703125 159.140625 c 0
 88.7236328125 173.805664062 88 189.518554688 88 205 c 2
 88 295 l 2
 88 310.481445312 88.7236328125 326.194335938 93.6845703125 340.859375 c 0
 98.6455078125 355.524414062 107.391601562 368.724609375 118 380 c 0
 141.4765625 404.953125 173.909179688 421.596679688 208 425 c 0
 224.280273438 426.625 240.920898438 425.215820312 256.518554688 420.278320312 c 0
 272.1171875 415.340820312 286.666015625 406.799804688 298 395 c 0
 309.913085938 382.59765625 318.036132812 366.926757812 323.370117188 350.577148438 c 0
 328.704101562 334.227539062 331.413085938 317.124023438 333 300 c 0
 336.079101562 266.76953125 336.079101562 233.23046875 333 200 c 0
 331.413085938 182.875976562 328.704101562 165.772460938 323.370117188 149.422851562 c 0
 318.036132812 133.073242188 309.913085938 117.40234375 298 105 c 0
 286.666015625 93.2001953125 272.1171875 84.6591796875 256.518554688 79.7216796875 c 0
 240.920898438 74.7841796875 224.280273438 73.375 208 75 c 0
 173.909179688 78.4033203125 141.4765625 95.046875 118 120 c 0
  Spiro
    118 120 c
    88 205 [
    88 295 ]
    118 380 c
    208 425 o
    298 395 c
    333 300 o
    333 200 o
    298 105 c
    208 75 o
    0 0 z
  EndSpiro
208 0 m 0
 234.337890625 -2.515625 261.235351562 0.109375 286.36328125 8.3916015625 c 0
 311.491210938 16.673828125 334.852539062 30.7470703125 353 50 c 0
 371.607421875 69.7421875 384.388671875 94.4404296875 392.841796875 120.21875 c 0
 401.293945312 145.998046875 405.670898438 172.970703125 408 200 c 0
 410.865234375 233.249023438 410.865234375 266.750976562 408 300 c 0
 405.670898438 327.029296875 401.293945312 354.001953125 392.841796875 379.78125 c 0
 384.388671875 405.559570312 371.607421875 430.2578125 353 450 c 0
 334.852539062 469.252929688 311.491210938 483.326171875 286.36328125 491.608398438 c 0
 261.235351562 499.890625 234.337890625 502.515625 208 500 c 0
 160.989257812 495.510742188 115.336914062 474.416015625 83 440 c 0
 65.693359375 421.581054688 52.474609375 399.271484375 45.18359375 375.072265625 c 0
 37.8935546875 350.873046875 37 325.2734375 37 300 c 2
 37 200 l 2
 37 174.7265625 37.8935546875 149.126953125 45.18359375 124.927734375 c 0
 52.474609375 100.728515625 65.693359375 78.4189453125 83 60 c 0
 115.336914062 25.583984375 160.989257812 4.4892578125 208 0 c 0
  Spiro
    208 0 o
    353 50 c
    408 200 o
    408 300 o
    353 450 c
    208 500 o
    83 440 c
    37 300 [
    37 200 ]
    83 60 c
    0 0 z
  EndSpiro
20 0 m 1
 75 0 l 1
 81.5419921875 26.3466796875 86.552734375 53.0732421875 90 80 c 0
 95.08984375 119.758789062 96.7646484375 159.955078125 95 200 c 2
 95 725 l 1
 20 725 l 1
 20 200 l 1
 20 0 l 1
  Spiro
    20 0 v
    75 0 v
    90 80 o
    95 200 v
    95 725 v
    20 725 v
    20 200 v
    0 0 z
  EndSpiro
EndSplineSet
EndChar

StartChar: h
Encoding: 104 104 11
Width: 450
VWidth: 0
InSpiro: 1
Flags: HW
LayerCount: 2
Back
SplineSet
100 0 m 1
 100 515 l 2
 100 555.059570312 99.626953125 595.208984375 95 635 c 0
 91.86328125 661.97265625 86.896484375 688.736328125 80 715 c 1
 25 715 l 1
 25 0 l 1
 100 0 l 1
  Spiro
    100 0 v
    100 515 ]
    95 635 o
    80 715 v
    25 715 v
    25 0 v
    0 0 z
  EndSpiro
EndSplineSet
Fore
SplineSet
100 715 m 1
 25 715 l 1
 25 0 l 1
 100 0 l 1
 100 324.73 l 1
 120.106198921 355.879123543 144.730282559 384.59272697 175 406 c 0
 190.952845596 417.282131124 208.826922363 426.235314192 228 430 c 0
 253.70099175 435.046459453 281.415291914 429.836040805 303 415 c 0
 320.804265708 402.762409782 334.109892019 384.410834111 341.204556767 364.004555081 c 0
 348.299221515 343.598276051 349 321.604409081 349 300 c 2
 349 0 l 1
 424 0 l 1
 424 300 l 2
 424 317.738050802 423.82283436 335.541728904 421.232223556 353.089582958 c 0
 418.641612752 370.637437012 413.669608122 387.876542532 405.93616078 403.840008272 c 0
 390.469266096 435.766939753 364.118392164 461.964758466 333 479 c 0
 301.175136987 496.421987144 264.007398971 504.451377449 228 500 c 0
 200.244635678 496.568771798 173.630132441 485.958289221 150 471 c 0
 131.497981069 459.287896776 114.670679624 444.958613301 100 428.70225375 c 1
 100 715 l 1
  Spiro
    100 715 v
    25 715 v
    25 0 v
    100 0 v
    100 324.73 v
    175 406 o
    228 430 o
    303 415 o
    349 300 [
    349 0 v
    424 0 v
    424 300 ]
    333 479 o
    228 500 o
    150 471 o
    100 428.702 v
    0 0 z
  EndSpiro
EndSplineSet
EndChar

StartChar: f
Encoding: 102 102 12
Width: 400
VWidth: 0
InSpiro: 1
Flags: HW
LayerCount: 2
Fore
SplineSet
219 0 m 1
 144 0 l 1
 144 500 l 2
 144 531.064453125 143.836914062 562.359375 149.63671875 592.87890625 c 0
 155.436523438 623.397460938 167.9765625 653.129882812 189 676 c 0
 214.517578125 703.759765625 251.42578125 719.838867188 289 723 c 0
 326.186523438 726.12890625 364.137695312 717.68359375 397 700 c 1
 366 635 l 1
 343.782226562 650.08203125 314.899414062 655.092773438 289 648 c 0
 268.759765625 642.45703125 250.671875 629.440429688 239 612 c 0
 228.287109375 595.9921875 223.061523438 576.857421875 220.87109375 557.721679688 c 0
 218.681640625 538.584960938 219 519.260742188 219 500 c 2
 219 0 l 1
  Spiro
    219 0 v
    144 0 v
    144 500 ]
    189 676 o
    289 723 o
    397 700 v
    366 635 v
    289 648 o
    239 612 o
    219 500 [
    0 0 z
  EndSpiro
333 460 m 1
 334 385 l 1
 59 385 l 1
 59 460 l 1
 333 460 l 1
  Spiro
    333 460 v
    334 385 v
    59 385 v
    59 460 v
    0 0 z
  EndSpiro
EndSplineSet
EndChar

StartChar: q
Encoding: 113 113 13
Width: 442
VWidth: 0
Flags: HW
LayerCount: 2
Back
SplineSet
322 380 m 0
 332.608398438 368.724609375 341.354492188 355.524414062 346.315429688 340.859375 c 0
 351.276367188 326.194335938 352 310.481445312 352 295 c 2
 352 205 l 2
 352 189.518554688 351.276367188 173.805664062 346.315429688 159.140625 c 0
 341.354492188 144.475585938 332.608398438 131.275390625 322 120 c 0
 298.5234375 95.046875 266.090820312 78.4033203125 232 75 c 0
 215.719726562 73.375 199.079101562 74.7841796875 183.481445312 79.7216796875 c 0
 167.8828125 84.6591796875 153.333984375 93.2001953125 142 105 c 0
 130.086914062 117.40234375 121.963867188 133.073242188 116.629882812 149.422851562 c 0
 111.295898438 165.772460938 108.586914062 182.875976562 107 200 c 0
 103.920898438 233.23046875 103.920898438 266.76953125 107 300 c 0
 108.586914062 317.124023438 111.295898438 334.227539062 116.629882812 350.577148438 c 0
 121.963867188 366.926757812 130.086914062 382.59765625 142 395 c 0
 153.333984375 406.799804688 167.8828125 415.340820312 183.481445312 420.278320312 c 0
 199.079101562 425.215820312 215.719726562 426.625 232 425 c 0
 266.090820312 421.596679688 298.5234375 404.953125 322 380 c 0
  Spiro
    322 380 c
    352 295 [
    352 205 ]
    322 120 c
    232 75 o
    142 105 c
    107 200 o
    107 300 o
    142 395 c
    232 425 o
    0 0 z
  EndSpiro
232 500 m 0
 205.662109375 502.515625 178.764648438 499.890625 153.63671875 491.608398438 c 0
 128.508789062 483.326171875 105.147460938 469.252929688 87 450 c 0
 68.392578125 430.2578125 55.611328125 405.559570312 47.158203125 379.78125 c 0
 38.7060546875 354.001953125 34.3291015625 327.029296875 32 300 c 0
 29.134765625 266.750976562 29.134765625 233.249023438 32 200 c 0
 34.3291015625 172.970703125 38.7060546875 145.998046875 47.158203125 120.21875 c 0
 55.611328125 94.4404296875 68.392578125 69.7421875 87 50 c 0
 105.147460938 30.7470703125 128.508789062 16.673828125 153.63671875 8.3916015625 c 0
 178.764648438 0.109375 205.662109375 -2.515625 232 0 c 0
 279.010742188 4.4892578125 324.663085938 25.583984375 357 60 c 0
 374.306640625 78.4189453125 387.525390625 100.728515625 394.81640625 124.927734375 c 0
 402.106445312 149.126953125 403 174.7265625 403 200 c 2
 403 300 l 2
 403 325.2734375 402.106445312 350.873046875 394.81640625 375.072265625 c 0
 387.525390625 399.271484375 374.306640625 421.581054688 357 440 c 0
 324.663085938 474.416015625 279.010742188 495.510742188 232 500 c 0
  Spiro
    232 500 o
    87 450 c
    32 300 o
    32 200 o
    87 50 c
    232 0 o
    357 60 c
    403 200 [
    403 300 ]
    357 440 c
    0 0 z
  EndSpiro
440 500 m 1
 380 500 l 1
 371.978515625 477.08203125 365.296875 453.696289062 360 430 c 0
 350.465820312 387.3515625 345.4296875 343.69921875 345 300 c 2
 345 -225 l 1
 420 -225 l 1
 420 300 l 2
 419.624023438 343.44921875 422.299804688 386.924804688 428 430 c 0
 431.106445312 453.474609375 435.110351562 476.831054688 440 500 c 1
  Spiro
    440 500 v
    380 500 v
    360 430 o
    345 300 v
    345 -225 v
    420 -225 v
    420 300 v
    428 430 o
    0 0 z
  EndSpiro
EndSplineSet
Fore
SplineSet
420 500 m 5
 365 500 l 5
 358.458007812 473.653320312 353.447265625 446.926757812 350 420 c 4
 344.91015625 380.241210938 343.235351562 340.044921875 345 300 c 6
 345 -225 l 5
 420 -225 l 5
 420 300 l 5
 420 500 l 5
  Spiro
    420 500 v
    365 500 v
    350 420 o
    345 300 v
    345 -225 v
    420 -225 v
    420 300 v
    0 0 z
  EndSpiro
305 395 m 4
 318.264648438 383.578125 328.346679688 368.514648438 333.85546875 351.899414062 c 4
 339.36328125 335.284179688 340 317.50390625 340 300 c 6
 340 200 l 6
 340 182.49609375 339.36328125 164.715820312 333.85546875 148.100585938 c 4
 328.346679688 131.485351562 318.264648438 116.421875 305 105 c 4
 281.80078125 85.0244140625 250.59765625 76.009765625 220 75 c 4
 203.762695312 74.4638671875 187.384765625 76.21484375 171.84375 80.9501953125 c 4
 156.302734375 85.685546875 141.541992188 93.56640625 130 105 c 4
 117.7578125 117.126953125 109.526367188 132.849609375 104.24609375 149.251953125 c 4
 98.9658203125 165.654296875 96.4423828125 182.829101562 95 200 c 4
 92.2080078125 233.247070312 92.2080078125 266.752929688 95 300 c 4
 96.4423828125 317.170898438 98.9658203125 334.345703125 104.24609375 350.748046875 c 4
 109.526367188 367.150390625 117.7578125 382.873046875 130 395 c 4
 141.541992188 406.43359375 156.302734375 414.314453125 171.84375 419.049804688 c 4
 187.384765625 423.78515625 203.762695312 425.536132812 220 425 c 4
 250.59765625 423.990234375 281.80078125 414.975585938 305 395 c 4
  Spiro
    305 395 c
    340 300 [
    340 200 ]
    305 105 c
    220 75 o
    130 105 c
    95 200 o
    95 300 o
    130 395 c
    220 425 o
    0 0 z
  EndSpiro
220 500 m 4
 193.731445312 500.728515625 167.252929688 497.6640625 142.202148438 489.723632812 c 4
 117.151367188 481.783203125 93.447265625 468.715820312 75 450 c 4
 55.9248046875 430.647460938 43.0234375 405.861328125 34.662109375 380.005859375 c 4
 26.30078125 354.151367188 22.177734375 327.0859375 20 300 c 4
 17.3251953125 266.740234375 17.3251953125 233.259765625 20 200 c 4
 22.177734375 172.9140625 26.30078125 145.848632812 34.662109375 119.994140625 c 4
 43.0234375 94.138671875 55.9248046875 69.3525390625 75 50 c 4
 93.447265625 31.2841796875 117.151367188 18.216796875 142.202148438 10.2763671875 c 4
 167.252929688 2.3359375 193.731445312 -0.728515625 220 0 c 4
 270.514648438 1.400390625 322.043945312 16.638671875 360 50 c 4
 380.733398438 68.2236328125 396.5859375 91.9638671875 405.279296875 118.162109375 c 4
 413.971679688 144.361328125 415 172.396484375 415 200 c 6
 415 300 l 6
 415 327.603515625 413.971679688 355.638671875 405.279296875 381.837890625 c 4
 396.5859375 408.036132812 380.733398438 431.776367188 360 450 c 4
 322.043945312 483.361328125 270.514648438 498.599609375 220 500 c 4
  Spiro
    220 500 o
    75 450 c
    20 300 o
    20 200 o
    75 50 c
    220 0 o
    360 50 c
    415 200 [
    415 300 ]
    360 450 c
    0 0 z
  EndSpiro
EndSplineSet
EndChar

StartChar: r
Encoding: 114 114 14
Width: 296
VWidth: 0
InSpiro: 1
Flags: HW
LayerCount: 2
Fore
SplineSet
109.918945312 324.727539062 m 0
 130.041992188 355.889648438 154.702148438 384.599609375 185 406 c 0
 200.958984375 417.272460938 218.831054688 426.220703125 238 430 c 0
 263.704101562 435.067382812 291.465820312 429.921875 313 415 c 1
 343 479 l 1
 311.716796875 497.552734375 274.05078125 504.8125 238 500 c 0
 210.294921875 496.301757812 183.681640625 485.846679688 160 471 c 0
 139.299804688 458.022460938 120.712890625 441.708984375 105 423 c 1
 103.21875 434.703125 101.217773438 446.372070312 99 458 c 0
 96.3173828125 472.065429688 93.31640625 486.0703125 90 500 c 1
 35 500 l 1
 35 0 l 1
 110 0 l 1
 110 300 l 2
 110 302.744140625 109.999023438 305.48828125 109.994140625 308.233398438 c 0
 109.989257812 310.986328125 109.981445312 313.739257812 109.96875 316.493164062 c 0
 109.95703125 319.23828125 109.940429688 321.983398438 109.918945312 324.727539062 c 0
  Spiro
    109.919 324.728 {
    185 406 o
    238 430 o
    313 415 v
    343 479 v
    238 500 o
    160 471 o
    105 423 v
    99 458 o
    90 500 v
    35 500 v
    35 0 v
    110 0 v
    110 300 ]
    109.994 308.233 o
    109.969 316.493 o
    109.919 324.728 v
    0 0 z
  EndSpiro
EndSplineSet
EndChar

StartChar: m
Encoding: 109 109 15
Width: 450
VWidth: 0
InSpiro: 1
Flags: HW
LayerCount: 2
Fore
SplineSet
424.92 324.73 m 1
 424.986666285 316.486867019 425 308.243402558 425 300 c 2
 425 0 l 1
 350 0 l 1
 350 300 l 2
 350 321.604361686 349.299046509 343.598175781 342.204240511 364.004355525 c 0
 335.109434513 384.410535268 321.803961195 402.762050431 304 415 c 0
 282.415511356 429.836579377 254.700913857 435.047500824 229 430 c 0
 209.82716605 426.234573771 191.953979252 417.280360914 176 406 c 0
 145.713447947 384.585703754 121.06763933 355.870890876 100.919 324.728 c 1
 100.919 324.728 l 1
 100.940279633 321.983030613 100.956837617 319.238024925 100.969 316.493 c 0
 100.981199134 313.739680278 100.989106085 310.986342398 100.994 308.233 c 0
 100.998877896 305.488669851 101 302.744334484 101 300 c 2
 101 0 l 1
 26 0 l 1
 26 500 l 1
 81 500 l 1
 84.3161310247 486.070239267 87.3171541466 472.065464698 90 458 c 0
 92.2179071277 446.372088404 94.2183732788 434.702702523 96 423 c 1
 111.773194725 441.652908483 130.336908263 457.97075188 151 471 c 0
 174.650691056 485.91309848 201.266040447 496.452721999 229 500 c 0
 265.023437767 504.607533521 302.35876271 496.825530468 334 479 c 0
 363.887950049 462.162208249 388.846932706 436.772364267 405.48 406.77 c 1
 410.202671437 412.283466456 415.042481734 417.696703807 420 423 c 0
 436.655843291 440.817558217 454.624512415 457.593956503 475 471 c 0
 498.390995851 486.390095893 525.1785383 496.844052069 553 500 c 0
 589.014509026 504.085332269 626.094765096 496.198569297 658 479 c 0
 689.251561262 462.153794554 715.695652281 435.950387452 731.096967235 403.962042435 c 0
 738.797624713 387.967869927 743.716300265 370.699661447 746.27363296 353.133394647 c 0
 748.830965654 335.567127847 749 317.751441626 749 300 c 2
 749 0 l 1
 674 0 l 1
 674 300 l 2
 674 321.604361359 673.2990453 343.598175089 666.204238327 364.004354147 c 0
 659.109431354 384.410533205 645.803959095 402.762047954 628 415 c 0
 606.415512872 429.836583088 578.700913337 435.047507892 553 430 c 0
 533.827167683 426.234568742 515.953986266 417.280349899 500 406 c 0
 469.714029241 384.586145087 445.068532827 355.872091001 424.92 324.73 c 1
  Spiro
    424.92 324.73 v
    425 300 [
    425 0 v
    350 0 v
    350 300 ]
    304 415 o
    229 430 o
    176 406 o
    100.919 324.728 v
    100.919 324.728 v
    100.969 316.493 o
    100.994 308.233 o
    101 300 [
    101 0 v
    26 0 v
    26 500 v
    81 500 v
    90 458 o
    96 423 v
    151 471 o
    229 500 o
    334 479 o
    405.48 406.77 v
    420 423 o
    475 471 o
    553 500 o
    658 479 o
    749 300 [
    749 0 v
    674 0 v
    674 300 ]
    628 415 o
    553 430 o
    500 406 o
    0 0 z
  EndSpiro
EndSplineSet
EndChar

StartChar: t
Encoding: 116 116 16
Width: 400
VWidth: 0
InSpiro: 1
Flags: HW
LayerCount: 2
Fore
SplineSet
219 460 m 1
 219 727 l 1
 144 727 l 1
 144 460 l 1
 59 460 l 1
 59 385 l 1
 144 385 l 1
 144 227 l 2
 144 195.935223185 143.837049117 164.640137159 149.636564685 134.121520255 c 0
 155.436080252 103.60290335 167.977003678 73.8703735046 189 51 c 0
 214.517786924 23.2398601493 251.426224657 7.16136370872 289 4 c 0
 326.186764084 0.871198453019 364.137706142 9.31626553696 397 27 c 1
 366 92 l 1
 343.782194652 76.9177801683 314.899784586 71.9073708738 289 79 c 0
 268.759572849 84.5428199667 250.671567571 97.559465178 239 115 c 0
 228.287549433 131.007349998 223.061149684 150.142436034 220.871160296 169.27867907 c 0
 218.681170909 188.414922107 219 207.738851252 219 227 c 2
 219 385 l 1
 334 385 l 1
 333 460 l 1
 219 460 l 1
  Spiro
    219 460 v
    219 727 v
    144 727 v
    144 460 v
    59 460 v
    59 385 v
    144 385 v
    144 227 ]
    189 51 o
    289 4 o
    397 27 v
    366 92 v
    289 79 o
    239 115 o
    219 227 [
    219 385 v
    334 385 v
    333 460 v
    0 0 z
  EndSpiro
EndSplineSet
EndChar

StartChar: u
Encoding: 117 117 17
Width: 450
VWidth: 0
InSpiro: 1
Flags: HW
LayerCount: 2
Fore
SplineSet
350.081054688 175.272460938 m 1
 350.059570312 178.016601562 350.04296875 180.76171875 350.03125 183.506835938 c 0
 350.018554688 186.260742188 350.010742188 189.013671875 350.005859375 191.766601562 c 0
 350.000976562 194.51171875 350 197.255859375 350 200 c 2
 350 500 l 1
 425 500 l 1
 425 0 l 1
 370 0 l 1
 366.68359375 13.9296875 363.682617188 27.9345703125 361 42 c 0
 358.782226562 53.6279296875 356.78125 65.296875 355 77 c 1
 339.17578125 58.39453125 320.631835938 42.0732421875 300 29 c 0
 276.375976562 14.0302734375 249.756835938 3.423828125 222 0 c 0
 185.9921875 -4.44140625 148.827148438 3.583984375 117 21 c 0
 85.8779296875 38.0302734375 59.5244140625 64.228515625 44.0595703125 96.15625 c 0
 36.3271484375 112.12109375 31.3564453125 129.361328125 28.7666015625 146.909179688 c 0
 26.1767578125 164.458007812 26 182.26171875 26 200 c 2
 26 500 l 1
 101 500 l 1
 101 200 l 2
 101 178.395507812 101.701171875 156.401367188 108.795898438 135.99609375 c 0
 115.890625 115.58984375 129.196289062 97.23828125 147 85 c 0
 168.584960938 70.1630859375 196.298828125 64.9521484375 222 70 c 0
 241.172851562 73.765625 259.045898438 82.7197265625 275 94 c 0
 305.286132812 115.4140625 329.932617188 144.12890625 350.081054688 175.272460938 c 1
 350.081054688 175.272460938 l 1
  Spiro
    350.081 175.272 v
    350.031 183.507 o
    350.006 191.767 o
    350 200 [
    350 500 v
    425 500 v
    425 0 v
    370 0 v
    361 42 o
    355 77 v
    300 29 o
    222 0 o
    117 21 o
    26 200 [
    26 500 v
    101 500 v
    101 200 ]
    147 85 o
    222 70 o
    275 94 o
    350.081 175.272 v
    0 0 z
  EndSpiro
EndSplineSet
EndChar

StartChar: w
Encoding: 119 119 18
Width: 839
VWidth: 0
Flags: HW
LayerCount: 2
Fore
SplineSet
613 75 m 1
 763 500 l 1
 838 500 l 1
 663 0 l 1
 563 0 l 1
 425.5 392.857142857 l 1
 288 0 l 1
 188 0 l 1
 13 500 l 1
 88 500 l 1
 238 75 l 1
 388 500 l 1
 463 500 l 1
 613 75 l 1
EndSplineSet
EndChar

StartChar: l
Encoding: 108 108 19
Width: 470
VWidth: 0
Flags: HW
LayerCount: 2
Fore
SplineSet
155 -1 m 1
 95 -1 l 1
 86.978515625 21.91796875 80.296875 45.3037109375 75 69 c 0
 65.4658203125 111.6484375 60.4296875 155.30078125 60 199 c 2
 60 724 l 1
 135 724 l 1
 135 199 l 2
 134.624023438 155.55078125 137.299804688 112.075195312 143 69 c 0
 146.106445312 45.525390625 150.110351562 22.1689453125 155 -1 c 1
  Spiro
    155 -1 v
    95 -1 v
    75 69 o
    60 199 v
    60 724 v
    135 724 v
    135 199 v
    143 69 o
    0 0 z
  EndSpiro
EndSplineSet
EndChar

StartChar: g
Encoding: 103 103 20
Width: 442
VWidth: 0
InSpiro: 1
Flags: HW
LayerCount: 2
Fore
SplineSet
420 300 m 1
 420 500 l 1
 365 500 l 1
 358.458251012 473.653399533 353.447025074 446.926861201 350 420 c 0
 344.910241732 380.240725991 343.235414468 340.044871667 345 300 c 2
 346 -4 l 2
 346.057562781 -21.4990853614 345.423754078 -39.2827538292 339.84998648 -55.8705329671 c 0
 334.276218883 -72.458312105 324.122258558 -87.422969625 311 -99 c 0
 287.96359102 -119.323727453 256.719506225 -129.204874529 226 -129 c 0
 193.865128305 -128.785686116 161.976932442 -117.918110111 136 -99 c 1
 81 -154 l 1
 122.506471185 -185.306266592 174.014196676 -203.412011123 226 -204 c 0
 276.706921897 -204.573524004 328.301727588 -187.916973852 366 -154 c 0
 386.515199643 -135.542562952 402.482740597 -111.953757862 411.275814196 -85.7959243234 c 0
 420.068887795 -59.6380907844 421.090776491 -31.5960533121 421 -4 c 2
 420 300 l 1
  Spiro
    420 300 v
    420 500 v
    365 500 v
    350 420 o
    345 300 v
    346 -4 ]
    311 -99 c
    226 -129 o
    136 -99 v
    81 -154 v
    226 -204 o
    366 -154 c
    421 -4 [
    0 0 z
  EndSpiro
305 395 m 0
 318.264648438 383.578125 328.346679688 368.514648438 333.85546875 351.899414062 c 0
 339.36328125 335.284179688 340 317.50390625 340 300 c 2
 340 200 l 2
 340 182.49609375 339.36328125 164.715820312 333.85546875 148.100585938 c 0
 328.346679688 131.485351562 318.264648438 116.421875 305 105 c 0
 281.80078125 85.0244140625 250.59765625 76.009765625 220 75 c 0
 203.762695312 74.4638671875 187.384765625 76.21484375 171.84375 80.9501953125 c 0
 156.302734375 85.685546875 141.541992188 93.56640625 130 105 c 0
 117.7578125 117.126953125 109.526367188 132.849609375 104.24609375 149.251953125 c 0
 98.9658203125 165.654296875 96.4423828125 182.829101562 95 200 c 0
 92.2080078125 233.247070312 92.2080078125 266.752929688 95 300 c 0
 96.4423828125 317.170898438 98.9658203125 334.345703125 104.24609375 350.748046875 c 0
 109.526367188 367.150390625 117.7578125 382.873046875 130 395 c 0
 141.541992188 406.43359375 156.302734375 414.314453125 171.84375 419.049804688 c 0
 187.384765625 423.78515625 203.762695312 425.536132812 220 425 c 0
 250.59765625 423.990234375 281.80078125 414.975585938 305 395 c 0
  Spiro
    305 395 c
    340 300 [
    340 200 ]
    305 105 c
    220 75 o
    130 105 c
    95 200 o
    95 300 o
    130 395 c
    220 425 o
    0 0 z
  EndSpiro
220 500 m 0
 193.675643505 501.549660455 166.986205148 498.820973219 141.889883071 490.724812982 c 0
 116.793560993 482.628652745 93.2817140246 469.004002861 75 450 c 0
 56.1766121519 430.432922425 43.3192107273 405.706681533 34.9005044572 379.893587189 c 0
 26.4817981871 354.080492844 22.2341749339 327.059174364 20 300 c 0
 17.2542518014 266.744914134 17.2885657403 233.257901217 20 200 c 0
 22.2078069576 172.91948885 26.3499550317 145.862852081 34.7061505602 120.009370846 c 0
 43.0623460887 94.1558896106 55.9376658839 69.3611960824 75 50 c 0
 93.4377663751 31.2731637198 117.144373539 18.2028133533 142.196852385 10.2643670523 c 0
 167.24933123 2.32592075139 193.730067369 -0.7323015203 220 0 c 0
 270.513483846 1.40811556447 322.042910049 16.6405311479 360 50 c 0
 380.733898772 68.2224678224 396.587090974 91.9629336156 405.279588503 118.162043878 c 0
 413.972086033 144.36115414 415 172.396505804 415 200 c 2
 415 300 l 2
 415 327.656056422 414.116618237 355.739485448 405.62173968 382.058575386 c 0
 397.126861123 408.377665323 381.342556265 432.411573439 360 450 c 0
 318.994822119 478.93699108 270.100654344 497.050678035 220 500 c 0
  Spiro
    220 500 o
    75 450 c
    20 300 o
    20 200 o
    75 50 c
    220 0 o
    360 50 c
    415 200 [
    415 300 ]
    360 450 v
    0 0 z
  EndSpiro
EndSplineSet
EndChar

StartChar: j
Encoding: 106 106 21
Width: 442
VWidth: 0
InSpiro: 1
Flags: HW
LayerCount: 2
Fore
SplineSet
253 -150 m 0
 215.35634718 -183.989071593 163.714214746 -200.608282918 113 -200 c 0
 61.0191088595 -199.37652415 9.53051765732 -181.266881345 -32 -150 c 1
 23 -95 l 1
 48.991457178 -113.893517246 80.8680054499 -124.76385094 113 -125 c 0
 143.723877901 -125.225800327 174.99578561 -115.366977668 198 -95 c 0
 211.095283839 -83.4059786181 221.197971071 -68.4211626669 226.760856326 -51.8391815347 c 0
 232.323741582 -35.2572004024 233 -17.4902198566 233 0 c 2
 233 500 l 1
 308 500 l 1
 308 0 l 2
 308 -27.5821392404 306.911043755 -55.5978984467 298.134902792 -81.7465839753 c 0
 289.358761829 -107.895269504 273.471928836 -131.515559657 253 -150 c 0
  Spiro
    253 -150 c
    113 -200 o
    -32 -150 v
    23 -95 v
    113 -125 o
    198 -95 c
    233 0 [
    233 500 v
    308 500 v
    308 0 ]
    0 0 z
  EndSpiro
233 665 m 25
 233 590 l 25
 308 590 l 25
 308 665 l 25
 233 665 l 25
  Spiro
    233 665 v
    233 590 v
    308 590 v
    308 665 v
    0 0 z
  EndSpiro
EndSplineSet
EndChar

StartChar: k
Encoding: 107 107 22
Width: 387
VWidth: 0
InSpiro: 1
Flags: HW
LayerCount: 2
Fore
SplineSet
95 275 m 1
 352 94 l 1
 352 -1 l 1
 20 225 l 1
 20 325 l 1
 334 500 l 1
 334 412 l 1
 95 275 l 1
  Spiro
    95 275 v
    352 94 v
    352 -1 v
    20 225 v
    20 325 v
    334 500 v
    334 412 v
    0 0 z
  EndSpiro
20 0 m 1
 75 0 l 1
 81.5419921875 26.3466796875 86.552734375 53.0732421875 90 80 c 0
 95.08984375 119.758789062 96.7646484375 159.955078125 95 200 c 2
 95 725 l 1
 20 725 l 1
 20 200 l 1
 20 0 l 1
  Spiro
    20 0 v
    75 0 v
    90 80 o
    95 200 v
    95 725 v
    20 725 v
    20 200 v
    0 0 z
  EndSpiro
EndSplineSet
EndChar

StartChar: x
Encoding: 120 120 23
Width: 499
VWidth: 0
Flags: HW
LayerCount: 2
Fore
SplineSet
187.5 322.115234375 m 1
 280 500 l 1
 355 500 l 1
 225 250 l 1
 355 0 l 1
 280 0 l 1
 187.5 177.884765625 l 1
 95 0 l 1
 20 0 l 1
 150 250 l 1
 150 250 l 1
 20 500 l 1
 95 500 l 1
 187.5 322.115234375 l 1
EndSplineSet
EndChar

StartChar: y
Encoding: 121 121 24
Width: 499
VWidth: 0
InSpiro: 1
Flags: HW
LayerCount: 2
Fore
SplineSet
133 -95 m 0
 108.812554636 -113.684260363 78.5581802451 -124.424049791 48 -125 c 0
 15.7621773663 -125.607607539 -16.5823022782 -114.839028142 -42 -95 c 1
 -97 -150 l 1
 -55.9512277671 -182.04815401 -4.07755277085 -200.119894399 48 -200 c 0
 98.5419235625 -199.88364097 148.84630848 -181.960726168 188 -150 c 0
 235.022723702 -111.615869729 263.497960635 -55.5349265599 288 0 c 0
 359.351999568 161.722377345 417.927140739 329.079923548 463 500 c 1
 388 500 l 1
 238 75 l 1
 88 500 l 1
 13 500 l 1
 188 0 l 1
 182.892486502 -37.1774189823 162.697837957 -72.0590846516 133 -95 c 0
  Spiro
    133 -95 c
    48 -125 o
    -42 -95 v
    -97 -150 v
    48 -200 o
    188 -150 o
    288 0 c
    463 500 v
    388 500 v
    238 75 v
    88 500 v
    13 500 v
    188 0 v
    0 0 z
  EndSpiro
EndSplineSet
EndChar

StartChar: z
Encoding: 122 122 25
Width: 450
VWidth: 0
Flags: HW
LayerCount: 2
Fore
SplineSet
392 425 m 5
 392 500 l 5
 57 500 l 5
 57 425 l 5
 317 425 l 5
 57 75 l 5
 57 0 l 5
 392 0 l 5
 392 75 l 5
 132 75 l 5
 392 425 l 5
EndSplineSet
EndChar
